<svg id="NTI-Gymnasiet---Logotyp-_RGB_" data-name="NTI-Gymnasiet---Logotyp-(RGB)" xmlns="http://www.w3.org/2000/svg" width="300" height="70.335" viewBox="0 0 300 70.335">
  <path id="Fill-1" d="M41.185,41.777V18.723H34V13H54.144v5.723H46.958V41.777H41.185" transform="translate(14.795 5.63)" fill-rule="evenodd"/>
  <path id="Fill-2" d="M20.684,40.2H15V12h1.51L30.859,28.223v-15.6h5.724V40.777h-1.51L20.684,25.171V40.2" transform="translate(6.582 5.197)" fill-rule="evenodd"/>
  <path id="Fill-3" d="M52,41.777h5.755V13H52Z" transform="translate(22.638 5.63)" fill-rule="evenodd"/>
  <path id="Fill-4" d="M74.083,28.622H79.9V39.5a12.851,12.851,0,0,1-2.316.393c-.908.077-1.795.116-2.638.116a19.489,19.489,0,0,1-4.784-.5A6.116,6.116,0,0,1,67.1,37.761a7.509,7.509,0,0,1-1.66-3.362,23.5,23.5,0,0,1-.514-5.376V26.065a25.225,25.225,0,0,1,.514-5.572,7.447,7.447,0,0,1,1.679-3.438,6.379,6.379,0,0,1,3.1-1.767,19.239,19.239,0,0,1,4.843-.52,18.548,18.548,0,0,1,2.9.212,16.761,16.761,0,0,1,2.31.521l.144.045.481-1.6-.133-.045a19.02,19.02,0,0,0-2.491-.608A17.033,17.033,0,0,0,75.142,13a18.489,18.489,0,0,0-6.027.826,8.425,8.425,0,0,0-3.73,2.477A9.131,9.131,0,0,0,63.5,20.373a27.453,27.453,0,0,0-.5,5.536v3.114a36.6,36.6,0,0,0,.34,5.2,8.9,8.9,0,0,0,1.581,4.053,7.825,7.825,0,0,0,3.653,2.6,18.808,18.808,0,0,0,6.449.9c.426,0,.946-.026,1.548-.078s1.211-.119,1.8-.2,1.191-.176,1.764-.294a9.217,9.217,0,0,0,1.479-.416l.093-.036v-13.9h-7.24l-.381,1.767" transform="translate(27.416 5.63)" fill-rule="evenodd"/>
  <path id="Fill-5" d="M89.711,28.016,81.044,13H79l9.772,16.669V41.777h1.837V29.63L100.582,13H98.537L89.711,28.016" transform="translate(34.376 5.63)" fill-rule="evenodd"/>
  <path id="Fill-6" d="M108.57,32.1,98.842,13H97V41.777h1.779V16.959l8.9,17.258h1.705l8.857-17.6V41.777h1.78V13h-1.883L108.57,32.1" transform="translate(42.207 5.63)" fill-rule="evenodd"/>
  <path id="Fill-7" d="M136,38.664,120.875,13H119V41.777h1.708V16.191l15.08,25.515.042.07H137.7V13H136V38.664" transform="translate(51.786 5.63)" fill-rule="evenodd"/>
  <path id="Fill-8" d="M153.1,30.8H141.762l5.65-15.781ZM148.614,13h-2.247L136,41.777h1.843l3.263-9.16h12.652l3.3,9.16h1.961L148.649,13.1Z" transform="translate(59.177 5.63)" fill-rule="evenodd"/>
  <path id="Fill-9" d="M170.97,28.875a6.108,6.108,0,0,0-1.993-1.6,9.916,9.916,0,0,0-3.142-.93l-3.738-.545a13.853,13.853,0,0,1-2.6-.6,4.148,4.148,0,0,1-1.6-.977,3.434,3.434,0,0,1-.84-1.551,9.683,9.683,0,0,1-.247-2.377,6.253,6.253,0,0,1,.492-2.625,4.114,4.114,0,0,1,1.43-1.693,6.461,6.461,0,0,1,2.363-.932,16.486,16.486,0,0,1,3.242-.289,20.491,20.491,0,0,1,3.634.289,19.13,19.13,0,0,1,2.9.753l.14.049.517-1.6-.129-.048a22.915,22.915,0,0,0-2.879-.842A17.645,17.645,0,0,0,164.646,13c-3.16,0-5.58.618-7.194,1.838A6.2,6.2,0,0,0,155,20.071v.39a10.987,10.987,0,0,0,.355,2.978,5.006,5.006,0,0,0,1.164,2.1,5.7,5.7,0,0,0,2.056,1.338,12.877,12.877,0,0,0,3.013.729l3.622.506a8.934,8.934,0,0,1,2.758.745,4.31,4.31,0,0,1,1.565,1.241,3.957,3.957,0,0,1,.714,1.69,12.326,12.326,0,0,1,.173,2.135,7.909,7.909,0,0,1-.4,2.6,4.532,4.532,0,0,1-1.265,1.906,5.745,5.745,0,0,1-2.3,1.175,13.477,13.477,0,0,1-3.563.4,28.7,28.7,0,0,1-3.952-.232A21.812,21.812,0,0,1,155.576,39l-.153-.048-.328,1.64.117.042a19.024,19.024,0,0,0,3.3.824,25.256,25.256,0,0,0,4.112.313A15.4,15.4,0,0,0,167,41.225a8.151,8.151,0,0,0,3.011-1.566,6.007,6.007,0,0,0,1.715-2.432,8.816,8.816,0,0,0,.535-3.145v-.505a11.45,11.45,0,0,0-.276-2.543,5.423,5.423,0,0,0-1.02-2.159" transform="translate(67.456 5.63)" fill-rule="evenodd"/>
  <path id="Fill-10" d="M172,41.777h1.439V13H172Z" transform="translate(74.763 5.63)" fill-rule="evenodd"/>
  <path id="Fill-11" d="M195.464,14.776,195.827,13H180V41.777h15.464L195.827,40H181.751V27.656h12.393l.363-1.776H181.751v-11.1h13.713" transform="translate(78.274 5.63)" fill-rule="evenodd"/>
  <path id="Fill-12" d="M194.374,13,194,14.776h9.81v27h1.807v-27h9.591L215.582,13H194.374" transform="translate(84.418 5.63)" fill-rule="evenodd"/>
  <path id="Fill-13" d="M30.215,5.637V0H0V31.565C0,53.09,10.828,59.972,28.5,69.418l1.718.917V63.951L30,63.837C13.968,55.218,5.6,49.869,5.6,31.565V5.637H30.215" fill-rule="evenodd"/>
</svg>
